<svg width="18" height="18" viewBox="0 0 18 18" fill="none" xmlns="http://www.w3.org/2000/svg">
<path d="M9.00015 0.771423L16.1263 4.88571V13.1143L12.3704 15.5571L9.12874 17.4857H7.84302L1.48828 13.8857L1.874 4.88571L9.00015 0.771423Z" fill="#2D374B"/>
<path d="M15.9584 11.554L15.9602 12.6879C15.9564 12.7654 15.9363 12.8411 15.9012 12.9103C15.8661 12.9795 15.8169 13.0404 15.7566 13.0893L14.5124 13.8099L11.0729 8.24721L12.3955 6.00461L15.9584 11.554Z" fill="#28A0F0"/>
<path d="M11.5776 15.511L9.09473 11.6143L10.6105 9.04255L13.8711 14.1818L11.5776 15.511Z" fill="#28A0F0"/>
<path d="M1.02994 13.6235L2.78549 14.635L8.62963 5.26287L7.63782 5.23721C6.79275 5.22528 5.88239 5.44489 5.46461 6.12705L2.14592 11.2708L1.02994 12.9862V13.6235Z" fill="white"/>
<path d="M9.38865 5.27224L12.0026 5.26275L5.5416 16.2219L3.47448 15.0317L9.38865 5.27224Z" fill="white"/>
<path d="M17.0613 5.24924C17.0494 4.97948 16.972 4.71667 16.8358 4.48348C16.6996 4.25029 16.5088 4.05372 16.2798 3.91071L9.78116 0.173589C9.54917 0.0595857 9.29413 0.000305176 9.03564 0.000305176C8.77715 0.000305176 8.5221 0.0595857 8.29011 0.173589C8.23585 0.200911 1.97034 3.83477 1.97034 3.83477C1.88328 3.87657 1.80002 3.92584 1.72148 3.98203C1.51804 4.1267 1.35002 4.3156 1.23005 4.53452C1.11008 4.75344 1.04128 4.99671 1.02881 5.24603V12.9858L2.14479 11.2704L2.13619 5.29876C2.14141 5.21688 2.16473 5.13719 2.20445 5.06541C2.24418 4.99363 2.29933 4.93156 2.36593 4.88366C2.39543 4.8625 8.76793 1.17387 8.7882 1.16373C8.86449 1.1266 8.94816 1.10711 9.033 1.10671C9.11785 1.10631 9.2017 1.12501 9.27833 1.16142L15.6929 4.85121C15.7676 4.89865 15.8298 4.96337 15.8742 5.0399C15.9187 5.11644 15.944 5.20254 15.9482 5.29093V12.6887C15.9466 12.7654 15.9287 12.8409 15.8956 12.9101C15.8626 12.9793 15.8151 13.0407 15.7564 13.0901L14.5121 13.8107L13.8708 14.1827L11.5772 15.5119L9.25127 16.8599C9.12267 16.9053 8.98199 16.9025 8.85529 16.8521L6.10344 15.2693L5.54134 16.2227L8.01445 17.6465C8.09629 17.6929 8.16915 17.7342 8.22893 17.7678C8.32154 17.8191 8.38465 17.8544 8.40684 17.8652C8.61375 17.9559 8.83745 18.0019 9.06334 18.0003C9.27052 18.0006 9.4759 17.9619 9.6688 17.8864L16.4246 13.974C16.6152 13.8258 16.7709 13.6375 16.8809 13.4225C16.9909 13.2076 17.0524 12.9711 17.0611 12.7298L17.0613 5.24924Z" fill="#96BEDC"/>
</svg>
