<svg width="16" height="17" viewBox="0 0 16 17" fill="none" xmlns="http://www.w3.org/2000/svg">
<g clip-path="url(#clip0_278_3514)">
<path d="M15.094 8.9237C15.094 13.0811 11.7232 16.4519 7.564 16.4525C3.40776 16.4525 0.0369956 13.0811 0.037598 8.9231C0.0363933 4.76505 3.40716 1.39429 7.5652 1.39429C11.7232 1.39429 15.094 4.76566 15.094 8.9237Z" fill="#FABE3C"/>
<path d="M10.5276 7.07928C10.4306 6.07093 9.56024 5.73301 8.46034 5.63664V4.23737H7.60922V5.59929C7.38574 5.59929 7.15685 5.60351 6.92976 5.60833V4.23737H6.07864L6.07803 5.63543C5.89371 5.63905 5.71241 5.64266 5.53592 5.64266V5.63844L4.36193 5.63784V6.5474C4.36193 6.5474 4.99079 6.53535 4.97994 6.54679C5.32509 6.54679 5.43713 6.74678 5.46966 6.91965V8.51348C5.49375 8.51348 5.52447 8.51469 5.55941 8.51951H5.46966L5.46906 10.7524C5.454 10.8609 5.39015 11.0337 5.14921 11.0343C5.16005 11.044 4.53059 11.0343 4.53059 11.0343L4.36133 12.0511H5.46966C5.67566 12.0511 5.87866 12.0547 6.07743 12.0559L6.07803 13.4709H6.92856V12.071C7.16167 12.0758 7.38755 12.0776 7.60861 12.0776L7.60801 13.4709H8.45914V12.0589C9.89033 11.977 10.8932 11.6162 11.0173 10.2718C11.1179 9.18933 10.6089 8.70563 9.79636 8.51047C10.2909 8.25989 10.5999 7.81716 10.5276 7.07928ZM9.33616 10.1043C9.33616 11.1614 7.52609 11.0416 6.94843 11.0416V9.16644C7.52609 9.16764 9.33616 9.00199 9.33616 10.1043ZM8.93981 7.45936C8.93981 8.42132 7.42911 8.30868 6.94843 8.30928V6.60944C7.42971 6.60944 8.94042 6.45644 8.93981 7.45936Z" fill="#B1B5C3"/>
<path d="M5.47168 8.47595H5.59817V8.56932H5.47168V8.47595Z" fill="#B1B5C3"/>
</g>
<defs>
<clipPath id="clip0_278_3514">
<rect width="16" height="16" fill="white" transform="translate(0 0.5)"/>
</clipPath>
</defs>
</svg>
