<svg width="17" height="16" viewBox="0 0 17 16" fill="none" xmlns="http://www.w3.org/2000/svg">
<g clip-path="url(#clip0_278_3546)">
<path d="M8.44531 16C12.8636 16 16.4453 12.4183 16.4453 8C16.4453 3.58172 12.8636 0 8.44531 0C4.02703 0 0.445312 3.58172 0.445312 8C0.445312 12.4183 4.02703 16 8.44531 16Z" fill="#F55749"/>
<path d="M8.35181 3.02376C8.38023 3.00786 8.41225 2.99951 8.44481 2.99951C8.47738 2.99951 8.50939 3.00786 8.53781 3.02376L12.6503 5.33275C12.6784 5.34826 12.7018 5.37099 12.7182 5.3986C12.7345 5.4262 12.7432 5.45767 12.7433 5.48975C12.7433 5.55475 12.7083 5.61475 12.6508 5.64675L9.07331 7.66375C8.94715 7.52033 8.77527 7.42494 8.58681 7.39375V6.29725C8.97431 6.23275 9.26981 5.90475 9.26981 5.50825C9.26981 5.06575 8.90181 4.70675 8.44731 4.70675C7.99281 4.70675 7.62481 5.06575 7.62481 5.50825C7.62481 5.90225 7.91731 6.22925 8.30181 6.29625V7.39525C8.11593 7.42724 7.94657 7.5218 7.82181 7.66325L4.24481 5.65475C4.21663 5.63938 4.1931 5.6167 4.17669 5.58911C4.16028 5.56151 4.15159 5.53001 4.15154 5.4979C4.15149 5.4658 4.16007 5.43427 4.1764 5.40662C4.19272 5.37897 4.21618 5.35622 4.24431 5.34075L8.35231 3.02526L8.35181 3.02376ZM12.6623 5.93375C12.6907 5.91769 12.7227 5.9092 12.7552 5.90911C12.7878 5.90903 12.8199 5.91734 12.8483 5.93325C12.8764 5.94878 12.8999 5.9715 12.9163 5.99909C12.9328 6.02668 12.9416 6.05814 12.9418 6.09025L12.9453 10.5733C12.9453 10.6383 12.9103 10.6978 12.8523 10.7303L8.86981 12.9753C8.74631 13.0453 8.59131 12.9578 8.59131 12.8183L8.58781 8.97175C8.78081 8.93975 8.95581 8.84125 9.08131 8.69425L10.0763 9.25175C10.0489 9.35408 10.0426 9.46092 10.0578 9.56575C10.1208 10.0043 10.5373 10.3093 10.9868 10.2478C11.4368 10.1858 11.7498 9.78025 11.6868 9.34175C11.6238 8.90325 11.2068 8.59825 10.7573 8.66025C10.6456 8.6752 10.5381 8.71296 10.4416 8.77119C10.3451 8.82942 10.2616 8.90688 10.1963 8.99875L9.22131 8.45225C9.29131 8.26675 9.28631 8.06225 9.20881 7.87975L12.6628 5.93275L12.6623 5.93375ZM3.94931 6.08975C3.94931 5.98375 4.03831 5.90825 4.13531 5.90825C4.16781 5.90825 4.20031 5.91675 4.22831 5.93325L7.68581 7.88225C7.60931 8.06425 7.60531 8.26725 7.67431 8.45225L6.69981 8.99875C6.63449 8.9069 6.55098 8.82946 6.45447 8.77123C6.35797 8.713 6.25053 8.67523 6.13881 8.66025C5.68881 8.59825 5.27331 8.90375 5.20981 9.34175C5.14631 9.77975 5.45981 10.1853 5.90981 10.2473C6.35981 10.3093 6.77481 10.0038 6.83881 9.56575C6.8541 9.46075 6.84781 9.35374 6.82031 9.25125L7.81481 8.69375C7.93931 8.83975 8.11231 8.93775 8.30331 8.97075L8.30031 12.8183C8.30031 12.9578 8.14531 13.0448 8.02131 12.9748L4.03831 10.7298C4.01023 10.7142 3.98679 10.6915 3.97044 10.6639C3.95409 10.6363 3.94542 10.6048 3.94531 10.5728L3.94931 6.08975Z" fill="white"/>
</g>
<defs>
<clipPath id="clip0_278_3546">
<rect width="16" height="16" fill="white" transform="translate(0.445312)"/>
</clipPath>
</defs>
</svg>
