<svg width="17" height="16" viewBox="0 0 17 16" fill="none" xmlns="http://www.w3.org/2000/svg">
<g clip-path="url(#clip0_278_3505)">
<path d="M8.44531 16C12.8636 16 16.4453 12.4183 16.4453 8C16.4453 3.58172 12.8636 0 8.44531 0C4.02703 0 0.445312 3.58172 0.445312 8C0.445312 12.4183 4.02703 16 8.44531 16Z" fill="#00ADEF"/>
<path fill-rule="evenodd" clip-rule="evenodd" d="M7.87681 13.493C5.10531 13.2025 2.94531 10.854 2.94531 8C2.94531 5.146 5.10531 2.7975 7.87681 2.507V4.192C6.9676 4.33214 6.13863 4.79322 5.53998 5.49174C4.94134 6.19026 4.61261 7.08005 4.61331 8C4.61261 8.91995 4.94134 9.80974 5.53998 10.5083C6.13863 11.2068 6.9676 11.6679 7.87681 11.808V13.493ZM8.96431 2.5C11.5793 2.7395 13.6658 4.8085 13.9383 7.4185H12.2568C12.1317 6.59552 11.7433 5.83526 11.1497 5.25166C10.5561 4.66807 9.7893 4.29259 8.96431 4.1815V2.5ZM13.9453 8.5085C13.7043 11.1535 11.6033 13.2585 8.96431 13.5V11.8185C9.80182 11.7058 10.579 11.3206 11.1759 10.7224C11.7728 10.1242 12.1563 9.34625 12.2673 8.5085H13.9453Z" fill="#B1B5C3"/>
</g>
<defs>
<clipPath id="clip0_278_3505">
<rect width="16" height="16" fill="white" transform="translate(0.445312)"/>
</clipPath>
</defs>
</svg>
