<svg width="17" height="15" viewBox="0 0 17 15" fill="none" xmlns="http://www.w3.org/2000/svg">
<g clip-path="url(#clip0_278_3536)">
<path d="M13.6377 1.26016H15.8717L11.2226 5.86333C9.53899 7.52944 6.80933 7.52944 5.1245 5.86333L0.473633 1.26016H2.70941L6.24148 4.75692C6.7561 5.26412 7.44964 5.54845 8.1722 5.54845C8.89476 5.54845 9.5883 5.26412 10.1029 4.75692L13.6377 1.26016Z" fill="#B1B5C3"/>
<path d="M2.68078 14.0602H0.445312L5.12456 9.42861C6.80818 7.76249 9.53784 7.76249 11.2227 9.42861L15.9019 14.0602H13.668L10.1057 10.535C9.59107 10.0278 8.89753 9.74349 8.17497 9.74349C7.45242 9.74349 6.75888 10.0278 6.24426 10.535L2.68078 14.0602Z" fill="#B1B5C3"/>
</g>
<defs>
<clipPath id="clip0_278_3536">
<rect width="16" height="13.6" fill="white" transform="translate(0.445312 0.5)"/>
</clipPath>
</defs>
</svg>
